<svg width="52" height="53" viewBox="0 0 52 53" fill="none" xmlns="http://www.w3.org/2000/svg">
<g filter="url(#filter0_d_1_364)">
<path d="M4 22.5C4 10.0736 14.0736 0 26.5 0H52V45H26.5C14.0736 45 4 34.9264 4 22.5Z" fill="white"/>
</g>
<g clip-path="url(#clip0_1_364)">
<path d="M27.1133 42H24.8867C24.6314 41.9688 24.3761 41.9354 24.12 41.9072C20.6837 41.5332 17.5472 40.3642 14.7759 38.292C10.7236 35.2624 8.21496 31.2531 7.29688 26.2679C7.16551 25.5554 7.09723 24.8317 7 24.1133C7 23.3711 7 22.6289 7 21.8867C7.02078 21.7806 7.0527 21.6752 7.0616 21.5676C7.37703 17.611 8.77754 14.0804 11.2965 11.0181C14.289 7.37992 18.118 5.12664 22.7648 4.29242C23.4669 4.16625 24.1794 4.09574 24.8867 4C25.6289 4 26.3711 4 27.1133 4C27.209 4.02004 27.304 4.05195 27.4005 4.05937C30.6728 4.30504 33.695 5.3107 36.4144 7.14242C40.9328 10.1854 43.716 14.3936 44.7061 19.7633C44.8352 20.4654 44.9035 21.1787 45 21.8867V24.1133C44.9792 24.209 44.9466 24.3033 44.9391 24.3998C44.6675 27.989 43.4822 31.2531 41.3477 34.1447C38.3144 38.2542 34.2724 40.7895 29.2367 41.7061C28.5346 41.8338 27.8213 41.9035 27.1133 42ZM21.0296 26.2493V25.0098H18.2731C18.9114 24.3062 19.4918 23.7132 20.0135 23.0735C20.3126 22.7061 20.5872 22.2882 20.7513 21.8481C21.1513 20.7742 20.6822 19.7039 19.6944 19.3343C18.99 19.0709 18.2657 19.0516 17.5517 19.3032C16.6024 19.6371 15.9307 20.6139 16.0428 21.4904H17.5643C17.6637 21.2247 17.7328 20.9605 17.8582 20.7252C18.0059 20.4484 18.2738 20.3541 18.5841 20.3853C18.8898 20.4157 19.114 20.5849 19.1659 20.8729C19.2149 21.1408 19.2335 21.4481 19.1474 21.6975C19.042 22.004 18.8498 22.3001 18.6323 22.5443C17.9755 23.2828 17.3283 24.0383 16.5987 24.7004C16.0925 25.1605 16.1029 25.663 16.166 26.2508H21.0296V26.2493ZM24.552 26.2508H26.1945V24.7657H26.8795V23.5077H26.1789V19.22C25.7506 19.22 25.3565 19.2379 24.9646 19.2141C24.6848 19.197 24.5223 19.2861 24.3731 19.5325C23.6302 20.7564 22.891 21.9847 22.0939 23.1744C21.748 23.691 21.7102 24.1853 21.8764 24.7768H24.5513V26.2508H24.552ZM34.2821 20.478C33.3914 22.4352 32.5305 24.3285 31.648 26.2686C32.1386 26.2686 32.5691 26.2508 32.9981 26.2745C33.2742 26.2901 33.4055 26.2003 33.5154 25.9383C34.2873 24.0932 35.0925 22.2608 35.8548 20.4112C35.9973 20.0654 35.9943 19.6602 36.0641 19.2475H30.9496V20.4773H34.2821V20.478ZM27.0606 26.8653C27.3671 26.8653 27.6269 26.8453 27.8822 26.8705C28.142 26.8965 28.2399 26.7941 28.3149 26.5514C28.8255 24.8881 29.3539 23.2308 29.8764 21.5713C30.1199 20.7979 30.3648 20.0246 30.6201 19.2171C30.3388 19.2171 30.1028 19.2356 29.8713 19.2126C29.567 19.1822 29.4252 19.2816 29.3309 19.5926C28.7632 21.4577 28.1679 23.3139 27.5838 25.1739C27.4109 25.7238 27.2432 26.2745 27.0606 26.8646V26.8653Z" fill="#E21E26"/>
<path d="M24.5468 21.5253V23.4958H23.3066C23.7044 22.8115 24.0896 22.1495 24.4755 21.4874C24.4993 21.5 24.523 21.5127 24.5475 21.5253H24.5468Z" fill="#E21E26"/>
</g>
<defs>
<filter id="filter0_d_1_364" x="0" y="0" width="56" height="53" filterUnits="userSpaceOnUse" color-interpolation-filters="sRGB">
<feFlood flood-opacity="0" result="BackgroundImageFix"/>
<feColorMatrix in="SourceAlpha" type="matrix" values="0 0 0 0 0 0 0 0 0 0 0 0 0 0 0 0 0 0 127 0" result="hardAlpha"/>
<feOffset dy="4"/>
<feGaussianBlur stdDeviation="2"/>
<feComposite in2="hardAlpha" operator="out"/>
<feColorMatrix type="matrix" values="0 0 0 0 0 0 0 0 0 0 0 0 0 0 0 0 0 0 0.25 0"/>
<feBlend mode="normal" in2="BackgroundImageFix" result="effect1_dropShadow_1_364"/>
<feBlend mode="normal" in="SourceGraphic" in2="effect1_dropShadow_1_364" result="shape"/>
</filter>
<clipPath id="clip0_1_364">
<rect width="38" height="38" fill="white" transform="translate(7 4)"/>
</clipPath>
</defs>
</svg>
